# xmcd CD database file
#
# Track frame offsets:
#	150
#	16960
#	41532
#	53029
#	73872
#	89266
#	106014
#	121208
#	135032
#	152740
#
# Disc length: 2247 seconds
#
# Revision: 2
# Processed by: cddbd v1.5.1PL2 Copyright (c) Steve Scherf et al.
# Submitted via: CDex 1.51
#
DISCID=7208c50a
DTITLE=Lacy Gibson - Switchy Titchy
DYEAR=1995
DGENRE=Blues
TTITLE0=Take my love (I want to give it all to you)
TTITLE1=Easy Woman
TTITLE2=Quaker City
TTITLE3=My love is real
TTITLE4=Somebody somewhere
TTITLE5=Come back Baby
TTITLE6=Switchy Titchy
TTITLE7=You better be sure
TTITLE8=Five long years
TTITLE9=Lucky you
EXTD=YEAR: 1995
EXTT0=
EXTT1=
EXTT2=
EXTT3=
EXTT4=
EXTT5=
EXTT6=
EXTT7=
EXTT8=
EXTT9=
PLAYORDER=
